<?xml version="1.0" encoding="utf-8"?>
<!-- Generator: Adobe Illustrator 16.0.1, SVG Export Plug-In . SVG Version: 6.00 Build 0)  -->
<!DOCTYPE svg PUBLIC "-//W3C//DTD SVG 1.1//EN" "http://www.w3.org/Graphics/SVG/1.1/DTD/svg11.dtd">
<svg version="1.1" xmlns="http://www.w3.org/2000/svg" xmlns:xlink="http://www.w3.org/1999/xlink" x="0px" y="0px" width="750px"
	 height="750px" viewBox="0 0 750 750" enable-background="new 0 0 750 750" xml:space="preserve">
<g id="Layer_2">
	<rect width="750" height="750"/>
</g>
<g id="Layer_1">
	<polygon id="sit_1_" fill="none" stroke="#FFFFFF" stroke-width="3" stroke-linecap="round" stroke-linejoin="round" points="
		249.526,252.67 414.709,358.745 587.485,350.188 584.968,470.164 168.316,496.461 166.577,334.654 251.231,332.623 	"/>
	<polygon fill="none" stroke="#FFFFFF" stroke-linecap="round" stroke-linejoin="round" points="247.829,172.728 251.232,332.626 
		166.572,334.654 168.316,496.461 43.673,505.115 4.648,176.457 	"/>
	<polygon fill="none" stroke="#FFFFFF" stroke-linecap="round" stroke-linejoin="round" points="0,176.333 4.648,176.457 
		15.493,267.786 0,267.786 	"/>
	<polygon fill="none" stroke="#FFFFFF" stroke-linecap="round" stroke-linejoin="round" points="0,267.786 15.493,267.786 
		26.783,363.308 0,363.056 	"/>
	<polygon fill="none" stroke="#FFFFFF" stroke-linecap="round" stroke-linejoin="round" points="0,363.056 26.783,363.308 
		43.673,505.115 0,507.634 	"/>
	<polygon fill="none" stroke="#FFFFFF" stroke-linecap="round" stroke-linejoin="round" points="0,55.813 446.256,52.493 
		444.422,196.612 589.604,198.508 587.485,350.188 414.709,358.745 249.53,252.673 247.829,172.728 4.648,176.457 0,176.333 	"/>
	<polygon fill="none" stroke="#FFFFFF" stroke-linecap="round" stroke-linejoin="round" points="446.256,52.493 690.456,50.799 
		691.045,135.404 750,130.695 750,459.726 584.971,470.168 589.604,198.508 444.422,196.612 	"/>
	<rect fill="none" stroke="#FFFFFF" stroke-linecap="round" stroke-linejoin="round" width="750" height="750"/>
	<polygon fill="none" stroke="#FFFFFF" stroke-linecap="round" stroke-linejoin="round" points="0,572.95 750,520.902 750,675.119 
		0,726.415 	"/>
	
		<line fill="none" stroke="#FFFFFF" stroke-width="5" stroke-linejoin="round" stroke-dasharray="1,1" x1="13.513" y1="694.82" x2="70.296" y2="694.82"/>
	<g>
		<text transform="matrix(1 0 0 1 22.98 687.4658)" fill="#FFFFFF" font-family="'HelveticaNeue-BoldItalic'" font-size="18.9275">16 ft</text>
	</g>
	<g>
		
			<text transform="matrix(1 0 0 1 609.8789 682.0332)" fill="#FFFFFF" font-family="'HelveticaNeue-BoldItalic'" font-size="18.9275">95 S 5th Street </text>
	</g>
</g>
</svg>
